<?xml version="1.0" encoding="utf-8"?>
<!-- Generator: Adobe Illustrator 25.4.1, SVG Export Plug-In . SVG Version: 6.00 Build 0)  -->
<svg version="1.1" id="Layer_1" xmlns="http://www.w3.org/2000/svg" xmlns:xlink="http://www.w3.org/1999/xlink" x="0px" y="0px"
	 viewBox="0 0 256 256" style="enable-background:new 0 0 256 256;" xml:space="preserve">
<style type="text/css">
	.st0{fill:#FFFFFF;}
</style>
<path class="st0" d="M127.8,79.9c-31.6,0-63.3,0-94.9,0c-12.4,0-20.4-11.5-15.5-22.2c3-6.5,8.3-9.6,15.6-9.6
	c30.3,0.1,60.6,0.1,90.9,0c33.3,0,66.6,0,99.9,0c8.8-0.2,16,6.8,16.1,15.6c0.1,7.3-4.7,13.7-11.8,15.6c-2.1,0.5-4.3,0.7-6.4,0.6
	C190.4,79.9,159.1,79.9,127.8,79.9z"/>
<path class="st0" d="M127.5,143.9c-31.8,0-63.6,0-95.4,0c-8.8,0.1-16-6.9-16.1-15.6c-0.1-7.3,4.8-13.7,11.8-15.6
	c1.8-0.4,3.6-0.6,5.4-0.5c63.1,0,126.2,0,189.4,0c10.2,0,17.3,6.7,17.3,16s-7.2,15.8-17.4,15.8C190.8,143.9,159.2,143.9,127.5,143.9
	z"/>
<path class="st0" d="M128.5,176.1c31.6,0,63.3,0,94.9,0c8.6,0,15.4,5.9,16.4,13.8c1,7.9-4,15.4-11.8,17.4c-1.9,0.4-3.9,0.6-5.9,0.5
	c-62.8,0-125.6,0-188.4,0c-10.6,0-17.8-6.6-17.7-16.1c0.1-9.3,7.2-15.7,17.5-15.7C65.3,176.1,96.9,176.1,128.5,176.1z"/>
</svg>
