<svg id="Layer_1" data-name="Layer 1" xmlns="http://www.w3.org/2000/svg" viewBox="0 0 24 24"><defs><style>.cls-1{fill:none;}.cls-2{fill:#fff;}</style></defs><path class="cls-1" d="M0,0H24V24H0Z"/><path class="cls-2" d="M12,20.53c-2.63,0-5.25,0-7.88,0-2,0-3-.89-3-2.9,0-3.73,0-7.47,0-11.2,0-2,.81-3,2.89-3,5.34,0,10.68,0,16,0,1.9,0,2.83.89,2.83,2.76,0,3.83,0,7.65,0,11.47,0,2-1,2.88-3,2.85C17.22,20.5,14.6,20.53,12,20.53ZM3.5,7.85V18.2h17V7.89C18,9.39,15.81,10.6,13.76,12a2.76,2.76,0,0,1-3.6,0C8.1,10.58,5.93,9.34,3.5,7.85Zm.09-2.1c2.92,1.8,5.18,3.24,7.5,4.58a2,2,0,0,0,1.68.07c2.39-1.36,4.7-2.84,7.65-4.65Z"/></svg>