<svg id="Layer_1" data-name="Layer 1" xmlns="http://www.w3.org/2000/svg" viewBox="0 0 24 24"><defs><style>.cls-1{fill:none;}.cls-2{fill:#fff;}</style></defs><path class="cls-1" d="M0,0H24V24H0Z"/><path class="cls-2" d="M12,8H2.72A1.56,1.56,0,0,1,1.14,5.83a1.58,1.58,0,0,1,1.59-1H21.31a1.56,1.56,0,0,1,1.56,2.09,1.6,1.6,0,0,1-1.62,1Z"/><path class="cls-2" d="M12,14.22H2.7a1.56,1.56,0,1,1-.1-3.11H21.42A1.58,1.58,0,0,1,23,12.69a1.56,1.56,0,0,1-1.54,1.53c-.92,0-1.83,0-2.75,0Z"/><path class="cls-2" d="M12,20.5H2.68a1.56,1.56,0,1,1,0-3.11c1.56,0,3.11,0,4.66,0H20.9c.13,0,.26,0,.39,0a1.56,1.56,0,1,1,0,3.11c-1.29,0-2.58,0-3.87,0Z"/></svg>