<svg id="Layer_1" data-name="Layer 1" xmlns="http://www.w3.org/2000/svg" viewBox="0 0 24 24"><defs><style>.cls-1{fill:none;}.cls-2{fill:#fff;}</style></defs><path class="cls-1" d="M0,0H24V24H0Z"/><path class="cls-2" d="M10.42,22.91C8.28,19,5.86,15.28,4.09,11.23A7.12,7.12,0,0,1,6.79,2.5a7.61,7.61,0,0,1,9,.06,7.14,7.14,0,0,1,2.61,8.77c-1.78,4-4.22,7.75-6.38,11.61Zm.23-3.56h1.24c1.52-3,3.23-5.83,4.51-8.89,1-2.45.09-4.68-2.09-6.21a5,5,0,0,0-6.13,0C6,5.79,5.08,8,6.11,10.48,7.4,13.53,9.12,16.4,10.65,19.35Z"/><path class="cls-2" d="M10.46,11.83C9.82,10.7,8.59,9.51,8.71,8.48S10.65,6,11.33,6.2A4,4,0,0,1,13.78,9c.11.85-1.38,1.88-2.16,2.84Z"/></svg>