<?xml version="1.0" encoding="utf-8"?>
<!-- Generator: Adobe Illustrator 25.4.2, SVG Export Plug-In . SVG Version: 6.00 Build 0)  -->
<svg version="1.1" id="Layer_1" xmlns="http://www.w3.org/2000/svg" xmlns:xlink="http://www.w3.org/1999/xlink" x="0px" y="0px"
	 viewBox="0 0 24 24" style="enable-background:new 0 0 24 24;" xml:space="preserve">
<style type="text/css">
	.st0{fill:none;}
	.st1{fill:#293241;}
</style>
<path class="st0" d="M0,0h24v24H0V0z"/>
<path class="st1" d="M1,22c0,0.6,0.5,1,1,1h13c0.6,0,1-0.5,1-1v-1H1V22z M8.5,9C4.8,9,1,11,1,15h15C16,11,12.2,9,8.5,9z M3.6,13
	c1.1-1.6,3.5-2,4.9-2s3.8,0.5,4.9,2H3.6z M1,17h15v2H1V17z M18,5V1h-2v4h-5l0.2,2h9.6l-1.4,14H18v2h1.7c0.8,0,1.5-0.6,1.6-1.5L23,5
	H18z"/>
</svg>
