<svg id="Layer_1" data-name="Layer 1" xmlns="http://www.w3.org/2000/svg" viewBox="0 0 1053.52 663.84"><defs><style>.cls-1{fill:#333;}</style></defs><path d="M20.1,21.75H98.35q40.07,0,58.46,18.62t18.38,57.27v13.2q0,25.46-8.25,41.48a48.38,48.38,0,0,1-25.22,23.1v.94q38.64,13.2,38.65,68.82v28.29q0,38.17-20,58.21t-58.69,20H20.1ZM92.22,156.09q15.56,0,23.34-8t7.78-26.87V102.83q0-17.92-6.37-25.93t-20-8H72v87.21Zm9.43,148.48q13.66,0,20.27-7.3t6.6-25.22V243.29q0-22.62-7.78-31.34t-25.69-8.72H72V304.57Z" transform="translate(-16.33 -21.75)"/><path d="M210.54,21.75H352V68.88H262.39v87.21h71.18v47.14H262.39V304.57H352v47.14H210.54Z" transform="translate(-16.33 -21.75)"/><path d="M421.71,21.75H492l53.73,330H493.83l-9.43-65.52v.94H425.48l-9.43,64.58H368Zm56.57,220.6L455.18,79.26h-.94L431.61,242.35Z" transform="translate(-16.33 -21.75)"/><path d="M570.66,21.75H647.5q40.05,0,58.45,18.62t18.38,57.27v20.27q0,51.38-33.94,65.05v.94Q709.25,189.55,717,207t7.77,46.67v58a221.4,221.4,0,0,0,.94,22.86,57.12,57.12,0,0,0,4.72,17.2h-52.8a75.87,75.87,0,0,1-3.77-15.08q-.95-7.06-.94-25.46V250.84q0-22.64-7.31-31.59t-25.22-8.95H622.51V351.71H570.66Zm70.71,141.41q15.55,0,23.33-8t7.78-26.87V102.83q0-17.92-6.36-25.93t-20-8H622.51v94.28Z" transform="translate(-16.33 -21.75)"/><path class="cls-1" d="M36.13,664.13q-19.8-21.43-19.8-61.51V429.15q0-40.06,19.8-61.51t57.51-21.45q37.71,0,57.51,21.45t19.79,61.51v28.28h-49V425.85q0-32.52-26.87-32.52T68.18,425.85V606.39q0,32.05,26.87,32.05t26.87-32.05V541.81H96V494.67h75v108q0,40.07-19.79,61.51T93.64,685.58Q55.91,685.58,36.13,664.13Z" transform="translate(-16.33 -21.75)"/><path class="cls-1" d="M204.41,350.9h76.83q40.06,0,58.45,18.62t18.39,57.27v20.27q0,51.39-33.94,65.05v.95q18.84,5.66,26.63,23.09t7.78,46.67v58a221.26,221.26,0,0,0,.94,22.86,57.26,57.26,0,0,0,4.72,17.21h-52.8a75.27,75.27,0,0,1-3.77-15.09q-1-7.06-.94-25.45V580q0-22.62-7.31-31.58t-25.22-9H256.26V680.87H204.41Zm70.7,141.41q15.56,0,23.34-8t7.77-26.87V432q0-17.91-6.36-25.93t-20-8H256.26v94.27Z" transform="translate(-16.33 -21.75)"/><path class="cls-1" d="M394.37,350.9H535.79V398H446.22v87.21H517.4v47.13H446.22V633.73h89.57v47.14H394.37Z" transform="translate(-16.33 -21.75)"/><path class="cls-1" d="M605.55,350.9h70.24l53.73,330H677.67l-9.43-65.52v.94H609.32l-9.43,64.58H551.81Zm56.57,220.61L639,408.41h-.94l-22.63,163.1Z" transform="translate(-16.33 -21.75)"/><path class="cls-1" d="M763.46,664.13q-19.34-21.43-19.33-61.51V583.76h49v22.63q0,32.05,26.86,32.05,13.2,0,20-7.77t6.83-25.22q0-20.75-9.43-36.53T802.58,531q-32.05-28.29-44.78-51.14t-12.73-51.62q0-39.12,19.8-60.57t57.51-21.45q37.23,0,56.33,21.45t19.09,61.51v13.67h-49v-17q0-17-6.6-24.74t-19.33-7.78q-25.92,0-25.92,31.58a62.21,62.21,0,0,0,9.66,33.47q9.66,15.56,35.12,37.71,32.52,28.28,44.78,51.38t12.25,54.21q0,40.55-20,62.22t-58.22,21.68Q782.78,685.58,763.46,664.13Z" transform="translate(-16.33 -21.75)"/><path class="cls-1" d="M928.44,350.9h141.41V398H980.29v87.21h71.18v47.13H980.29V633.73h89.56v47.14H928.44Z" transform="translate(-16.33 -21.75)"/><path d="M884.31,341.47c5.69-5,10.62-12,17.26-14.52,9.44-3.53,12.1-9.12,13.54-18.19,4.1-25.83,9.24-51.49,13.92-76.94-2.68-1.31-8.61-3.22-13.37-6.73-17.59-13-35.18-26-52-40-7.78-6.49-15-7.69-24.17-4.74-34.85,11.14-70.3,17.88-110.54,12.26,4.3-4.75,6.86-9.92,10.9-11.66,27.48-11.84,55.27-23,85.8-35.47-6.73-6.52-11.41-14.3-14.88-13.79-10.8,1.58-22.27,4.51-31.37,10.26-11.52,7.27-19.74,21.32-37.56,11.48,7.25-26.77-4.82-57.13,13.76-82.85a7.2,7.2,0,0,0,1.35-2.8c1.29-7.4,0-18.31,4.34-21.34,5.19-3.65,15.24.49,22.9-.66,28.26-4.24,56.43-9.1,84.58-14,16.16-2.85,29.31,2,41.34,12.9,21.45,19.49,44.16,37.62,65,57.67a133.14,133.14,0,0,1,25.39,34.12c7.62,14.63,13.08,30.62,17.56,46.56a152.26,152.26,0,0,1,5.25,37.6c.55,26.24-11.5,45.58-34.76,58.22-22.65,12.3-34.81,31.9-38.07,57.33-.38,3-2,5.77-3.12,8.69h-60.6Z" transform="translate(-16.33 -21.75)"/><path d="M983.31,345.36c9.74-18.29,15.56-34.81-5.65-49.05L1013,271.06c5.62,14.39,18.06,30.47,14.21,39.87C1020.74,326.67,1010.16,346.19,983.31,345.36Z" transform="translate(-16.33 -21.75)"/><path d="M884.83,211.22c-26.51,3.95-24.64,20.84-23.69,37.22l-5.06,2.06c-3.55-5.28-8.48-10.11-10.39-15.93-5.4-16.55-14-34.52,11.85-44.75Z" transform="translate(-16.33 -21.75)"/></svg>