<svg id="Layer_1" data-name="Layer 1" xmlns="http://www.w3.org/2000/svg" viewBox="0 0 719.75 720"><defs><style>.cls-1{fill:#fff;}.cls-2{fill:#74e6b1;}.cls-3{fill:#33435c;}.cls-4{fill:#f9dec9;}.cls-5{fill:#1c2533;}</style></defs><path class="cls-1" d="M368.8,260.73l-78.86,28.65A140.86,140.86,0,0,0,315,196.76l53.76,64" transform="translate(-0.4)"/><path class="cls-1" d="M290.26,373.75l-76-35.51a140.81,140.81,0,0,0,83.25-47.74l-7.22,83.25" transform="translate(-0.4)"/><path class="cls-1" d="M174.12,100.3A100.3,100.3,0,1,1,73.82,200.6a100.33,100.33,0,0,1,100.3-100.3m0-100.3,47.94,68.6a140.71,140.71,0,0,0-95.89,0l48-68.6M.4,100.3l83.45-7a144.45,144.45,0,0,0-31.3,37.11A133.88,133.88,0,0,0,35.9,176.32L.4,100.3M.8,300.89l35.31-75.62a143,143,0,0,0,47.74,83l-83-7.43M347.63,100.3l-35.5,76a140.88,140.88,0,0,0-47.75-83.24l83.25,7.22m67.2,140.42H374.71A160.26,160.26,0,0,1,214.23,401.19v40.12a201.77,201.77,0,0,0,141.83-58.77,199.4,199.4,0,0,0,58.77-141.82m-80.24,0H294.47A80.13,80.13,0,0,1,214.23,321v40.12A120.13,120.13,0,0,0,334.59,241.16v-.44" transform="translate(-0.4)"/><path class="cls-2" d="M414.83,240.72H374.71A160.26,160.26,0,0,1,214.23,401.19v40.12a201.77,201.77,0,0,0,141.83-58.77,199.4,199.4,0,0,0,58.77-141.82" transform="translate(-0.4)"/><path class="cls-2" d="M334.59,240.72H294.47A80.13,80.13,0,0,1,214.23,321v40.12A120.13,120.13,0,0,0,334.59,241.16v-.44" transform="translate(-0.4)"/><path class="cls-3" d="M505.4,339.89H504c-179,0-214,63-214,161.78L296.38,569H713.71l6.44-67.29c-.71-98.78-35.79-161.78-214.75-161.78" transform="translate(-0.4)"/><path class="cls-4" d="M694.38,539.61c-65.14-25.77-14.31-96.64-12.17-110.95,0,0-15-138.16-177.52-138.16S327.16,428.66,327.16,428.66c2.15,14.31,53.69,85.18-12.17,111,0,0-24.34-2.86-24.34,26.49,0,35.07,25.06,29.34,25.06,29.34,0,53.69,53,124.56,189,124.56s189-70.87,189-124.56c0,0,25.05,5.73,25.05-29.34,0-29.35-24.34-26.49-24.34-26.49" transform="translate(-0.4)"/><path class="cls-3" d="M567,654.86c1.44,0,2.15-6.44,2.15-9.31,0-18.61-28.63-34.36-64.42-34.36s-64.43,16.47-64.43,35.08c0,2.15.72,8.59,1.43,8.59H567" transform="translate(-0.4)"/><path class="cls-3" d="M401.61,346.34c16.46-5,33.64-10.74,50.82-14.32s35.08-6.44,52.26-7.16a217.56,217.56,0,0,1,53,4.3,206.85,206.85,0,0,1,50.11,17.18c-17.18-2.87-34.36-5.73-51.54-6.45a402.9,402.9,0,0,0-50.83-.71c-17.18.71-34.36,2.14-51.54,3.58s-34.36,3.58-52.25,3.58" transform="translate(-0.4)"/><path class="cls-3" d="M379.42,376.4c20.75-5,40.8-10.74,61.56-14.32s42.23-6.44,63.71-7.15a314.11,314.11,0,0,1,63.71,4.29c21.47,3.58,42.23,8.59,61.56,17.18-20.76-2.86-41.52-5-63-6.44a604.5,604.5,0,0,0-62.27-.72c-20.76.72-41.52,2.15-62.28,3.58s-41.52,4.3-63,3.58" transform="translate(-0.4)"/><path class="cls-5" d="M403,557.51,400.89,536c5.73-.71,13.6-2.15,22.19-3.58,42.24-7.87,112.39-21.47,189,4.3l-7.16,20c-70.86-24.34-137.44-11.45-177.52-3.58-10,2.15-18.62,3.58-24.34,4.3" transform="translate(-0.4)"/><circle class="cls-5" cx="416.24" cy="547.48" r="64.43"/><circle class="cls-2" cx="416.24" cy="547.48" r="42.95"/><circle class="cls-5" cx="592.33" cy="547.48" r="64.43"/><circle class="cls-2" cx="592.33" cy="547.48" r="42.95"/><path class="cls-1" d="M127.89,394.18,99.24,315.31a140.88,140.88,0,0,0,92.62,25.11l-64,53.76" transform="translate(-0.4)"/></svg>