<?xml version="1.0" encoding="utf-8"?>
<!-- Generator: Adobe Illustrator 26.0.1, SVG Export Plug-In . SVG Version: 6.00 Build 0)  -->
<svg version="1.1" id="Layer_1" xmlns="http://www.w3.org/2000/svg" xmlns:xlink="http://www.w3.org/1999/xlink" x="0px" y="0px"
	 viewBox="0 0 200 300" style="enable-background:new 0 0 200 300;" xml:space="preserve">
<style type="text/css">
	.st0{fill:none;stroke:#74E6B1;stroke-width:16.0486;stroke-linejoin:round;stroke-miterlimit:10;}
	.st1{fill:#74E6B1;}
</style>
<rect x="8.8" y="13.3" class="st0" width="182.8" height="274.3"/>
<g>
	<path class="st1" d="M45.9,139.5c-5.5,0-10.7-2.1-12.9-5.7c-1.5-2.3-0.6-4.2,1.9-4.9l0.7-0.2c2.1-0.6,3.4,0.1,4.7,1.4
		c1.5,1.6,3.4,2.4,5.5,2.4c2.5,0,4.1-1.1,4.1-2.9c0-5.1-17.2-2.1-17.2-14.3c0-6.1,5.2-10,12.7-10c5.6,0,10.2,1.8,12.3,5.1
		c1.7,2.7,1,4.6-1.8,5.2l-0.8,0.2c-2.9,0.6-3.9-0.7-5.3-1.9c-1.2-1-2.5-1.5-4.1-1.5c-2.3,0-3.8,1.1-3.8,2.7
		c0,5.8,17.5,2.1,17.5,14.2C59.4,135.5,53.8,139.5,45.9,139.5L45.9,139.5z"/>
	<path class="st1" d="M67.8,139.2c-2.5,0-3.9-1.4-3.9-3.9V108c0-2.5,1.4-3.9,3.9-3.9H69c2.5,0,3.9,1.4,3.9,3.9v8.3
		c1-1.9,3.5-4.2,7.7-4.2c6.2,0,9.8,2.9,9.8,12.2v10.9c0,2.5-1.4,3.9-3.9,3.9h-1.2c-2.5,0-3.9-1.4-3.9-3.9v-10c0-4.2-1.4-5.6-4.3-5.6
		c-2.9,0-4.2,1.6-4.2,5.8v9.8c0,2.5-1.4,3.9-3.9,3.9L67.8,139.2L67.8,139.2z"/>
	<path class="st1" d="M94.9,125.9c0-9.5,6.9-13.6,14-13.6c7.1,0,14,4,14,13.6c0,9.6-6.9,13.6-14,13.6
		C101.8,139.5,94.9,135.5,94.9,125.9z M113.9,125.9c0-4.1-2.1-6.4-5-6.4c-2.9,0-5,2.3-5,6.4c0,4.2,2.2,6.4,5.1,6.4
		C111.7,132.3,113.9,130,113.9,125.9z"/>
	<path class="st1" d="M137.5,139.2c-2.2,0-3.7-1-4.5-3.1l-7.3-18.9c-1-2.7,0.2-4.5,3.1-4.5h1.5c2.3,0,3.7,1,4.4,3.2l4.1,12.8
		l3.9-12.7c0.7-2.2,2.1-3.3,4.3-3.3h0c2.3,0,3.6,1.1,4.3,3.3l3.9,12.7l4.1-12.8c0.7-2.2,2.1-3.2,4.4-3.2h1.6c2.9,0,4.1,1.8,3.1,4.5
		l-7.3,18.8c-0.8,2.1-2.2,3.1-4.4,3.1h-1.9c-2.3,0-3.7-1.1-4.4-3.3l-3.4-11.5l-3.4,11.5c-0.7,2.2-2.1,3.3-4.4,3.3L137.5,139.2
		L137.5,139.2z"/>
	<path class="st1" d="M22.1,182.8v-25.7c0-2.5,1.4-3.9,3.9-3.9h6.6c12.5,0,16.5,4.3,16.5,13c0,8.7-4,12.8-16.4,12.8h-1.2v3.8
		c0,2.5-1.4,3.9-3.9,3.9H26C23.5,186.7,22.1,185.3,22.1,182.8z M39.6,166c0-3-1.4-4.8-5.3-4.8h-2.8v9.7h2.8
		C38.2,171,39.6,169.1,39.6,166z"/>
	<path class="st1" d="M51.8,173.5c0-9.5,6.9-13.6,14-13.6c7.1,0,14,4,14,13.6c0,9.6-6.9,13.6-14,13.6
		C58.7,187.1,51.8,183.1,51.8,173.5z M70.8,173.4c0-4.1-2.1-6.4-5-6.4c-2.9,0-5,2.3-5,6.4c0,4.2,2.2,6.4,5.1,6.4
		C68.7,179.9,70.8,177.6,70.8,173.4z"/>
	<path class="st1" d="M84.8,183.6c-2-1.9-2-4.5,1.3-5l1-0.2c1.9-0.3,2.8,0.4,4.3,1.7c1.2,1,2.7,1.5,4.2,1.5c2,0,3.3-0.8,3.3-2.1
		c0-4.5-14.9-1.7-14.9-11.4c0-5.1,4.8-8.1,11.7-8.1c3.9,0,7.6,1,9.9,3.1c2,1.9,1.8,4.3-1.2,4.9l-0.8,0.1c-2.2,0.4-3.1-0.8-4.2-1.5
		c-1.3-0.8-2.4-1.2-3.5-1.2c-1.9,0-3.1,0.7-3.1,2c0,4.4,15.1,0.8,15.1,10.9c0,5.4-4.8,8.8-12.3,8.8C91.1,187,87.1,185.8,84.8,183.6z
		"/>
	<path class="st1" d="M125,187.1c-7.6,0-11.1-3-11.1-11v-9.2h-0.7c-1.9,0-2.9-1.3-2.9-3.4c0-2.2,1-3.3,2.8-3.3h0.8v-1.4
		c0-2.3,1-3.4,3.8-4l1-0.2c3.2-0.7,4.3,0.4,4.3,3.3v2.4h2.7c2.8,0,3.9,1.2,3.9,3.3c0,2.2-1.1,3.4-3.9,3.4h-2.7v8.6
		c0,3.2,1.1,4.5,3.6,4.7c1.9,0.2,3.1,1.1,3.2,3.1c0,2.1-0.9,3.6-3.4,3.8C125.8,187.1,125.4,187.1,125,187.1L125,187.1z"/>
	<path class="st1" d="M145.6,187c-8.5,0-14-5.3-14-13.6c0-8.1,5.6-13.6,13.8-13.6c7.7,0,12.6,4.3,13.3,11.6c0.2,2.6-1.1,3.9-3.9,3.9
		h-14.2c0.1,3.5,2.1,5.6,5.6,5.6c1.9,0,3.2-0.6,4.5-1.6c1.3-1,2.1-1.5,4-1.1l0.7,0.2c2.6,0.6,3,2.1,1.2,4.2
		C154.4,185.3,150.6,187,145.6,187L145.6,187z M145.6,165.6c-2.7,0-4.7,1.7-4.9,4.6h9.8C150.3,167.4,148.4,165.6,145.6,165.6z"/>
	<path class="st1" d="M180.7,163.9l-0.1,0.7c-0.3,2.4-1.6,3-4,3.6c-2.6,0.6-4.1,2.6-4.1,6.7v7.9c0,2.5-1.4,3.9-3.9,3.9h-1.2
		c-2.5,0-3.9-1.4-3.9-3.9v-18.7c0-2.5,1.4-3.9,3.9-3.9h1.2c2.5,0,3.9,1.1,3.9,3.5c0.7-1.8,2.4-3.7,5.3-3.7
		C180.1,160,180.9,161.2,180.7,163.9z"/>
</g>
</svg>
