<?xml version="1.0" encoding="utf-8"?>
<!-- Generator: Adobe Illustrator 26.0.1, SVG Export Plug-In . SVG Version: 6.00 Build 0)  -->
<svg version="1.1" id="Layer_1" xmlns="http://www.w3.org/2000/svg" xmlns:xlink="http://www.w3.org/1999/xlink" x="0px" y="0px"
	 viewBox="0 0 1366 768" style="enable-background:new 0 0 1366 768;" xml:space="preserve">
<style type="text/css">
	.st0{fill:none;stroke:#74E6B1;stroke-width:42.1275;stroke-linejoin:round;stroke-miterlimit:10;}
	.st1{fill:#74E6B1;}
</style>
<rect x="443" y="24" class="st0" width="479.9" height="719.9"/>
<g>
	<path class="st1" d="M540.5,355.4c-14.5,0-28-5.6-33.9-14.9c-3.8-6.1-1.6-11.1,5-12.9l2-0.5c5.5-1.5,8.8,0.3,12.2,3.8
		c4,4.1,8.9,6.3,14.6,6.3c6.7,0,10.8-2.9,10.8-7.5c0-13.3-45.2-5.5-45.2-37.5c0-16,13.6-26.3,33.3-26.3c14.7,0,26.8,4.6,32.4,13.3
		c4.5,7,2.5,12-4.8,13.5l-2,0.4c-7.6,1.5-10.1-1.8-14-5c-3.1-2.6-6.5-4-10.7-4c-6.1,0-10,2.8-10,7.1c0,15.3,45.8,5.5,45.8,37.3
		C576.1,344.8,561.2,355.4,540.5,355.4L540.5,355.4z"/>
	<path class="st1" d="M598,354.5c-6.6,0-10.2-3.6-10.2-10.2v-71.6c0-6.6,3.6-10.2,10.2-10.2h3.1c6.6,0,10.2,3.6,10.2,10.2v21.9
		c2.5-5,9.2-10.9,20.1-10.9c16.2,0,25.8,7.7,25.8,32v28.6c0,6.6-3.6,10.2-10.2,10.2h-3.1c-6.6,0-10.2-3.6-10.2-10.2V318
		c0-11-3.6-14.7-11.2-14.7c-7.5,0-11.1,4.2-11.1,15.2v25.7c0,6.6-3.6,10.2-10.2,10.2L598,354.5L598,354.5z"/>
	<path class="st1" d="M669,319.7c0-25,18.2-35.6,36.8-35.6s36.6,10.6,36.6,35.6c0,25.3-18,35.7-36.8,35.7
		C687.1,355.5,669,345,669,319.7z M718.9,319.7c0-10.7-5.6-16.8-13.2-16.8c-7.5,0-13.3,6.1-13.3,16.8c0,10.9,5.7,16.9,13.3,16.9
		C713.4,336.6,718.9,330.6,718.9,319.7z"/>
	<path class="st1" d="M780.8,354.5c-5.8,0-9.6-2.5-11.8-8.1L750,296.9c-2.7-7.1,0.6-11.8,8.2-11.8h4c6,0,9.7,2.7,11.6,8.5l10.7,33.5
		l10.2-33.4c1.8-5.8,5.4-8.6,11.4-8.6h0.1c5.9,0,9.6,2.9,11.3,8.6l10.3,33.4l10.6-33.5c1.8-5.8,5.5-8.5,11.6-8.5h4.1
		c7.6,0,10.9,4.8,8.1,11.9l-19.2,49.5c-2.1,5.5-5.9,8.1-11.7,8.1h-5c-6,0-9.8-2.8-11.5-8.6l-8.9-30.1l-8.9,30.1
		c-1.7,5.8-5.4,8.6-11.5,8.6L780.8,354.5L780.8,354.5z"/>
	<path class="st1" d="M478.2,469v-67.5c0-6.6,3.6-10.2,10.2-10.2h17.4c32.7,0,43.3,11.2,43.3,34.1c0,22.9-10.6,33.6-43,33.6h-3.3v10
		c0,6.6-3.6,10.2-10.2,10.2h-4.2C481.8,479.3,478.2,475.7,478.2,469z M523.9,425c0-7.9-3.6-12.6-13.8-12.6h-7.3V438h7.3
		C520.3,438,523.9,433.1,523.9,425z"/>
	<path class="st1" d="M556,444.5c0-25,18.2-35.6,36.8-35.6c18.6,0,36.6,10.6,36.6,35.6c0,25.3-18,35.7-36.8,35.7
		C574.2,480.3,556,469.8,556,444.5z M605.9,444.4c0-10.7-5.6-16.8-13.2-16.8c-7.5,0-13.3,6.1-13.3,16.8c0,10.9,5.7,16.9,13.3,16.9
		C600.4,461.3,605.9,455.3,605.9,444.4z"/>
	<path class="st1" d="M642.7,471.1c-5.2-5.1-5.3-11.7,3.4-13.1l2.6-0.4c4.9-0.8,7.2,1,11.2,4.4c3.2,2.8,7.2,3.8,10.9,3.8
		c5.2,0,8.6-2.2,8.6-5.6c0-11.7-39.1-4.4-39.1-30c0-13.4,12.7-21.3,30.8-21.3c10.2,0,19.9,2.7,25.9,8.2c5.3,4.9,4.8,11.4-3.1,12.8
		l-2,0.4c-5.8,1.1-8.2-2-11-3.9c-3.3-2.1-6.3-3.1-9.3-3.1c-4.9,0-8.1,1.9-8.1,5.3c0,11.5,39.7,2.1,39.7,28.5c0,14.3-12.5,23-32.4,23
		C659.1,480.1,648.8,476.9,642.7,471.1z"/>
	<path class="st1" d="M748,480.4c-19.9,0-29.2-7.7-29.2-28.8v-24.2H717c-4.9,0-7.5-3.4-7.5-8.8c0-5.7,2.7-8.7,7.4-8.7h2V406
		c0-6.1,2.7-9,9.9-10.6l2.6-0.5c8.3-1.8,11.3,1.1,11.3,8.6v6.3h7.2c7.5,0,10.2,3.1,10.2,8.7c0,5.7-2.8,8.8-10.2,8.8h-7.2v22.5
		c0,8.4,2.9,11.9,9.5,12.3c5,0.5,8.2,3,8.3,8.1c0.1,5.5-2.5,9.3-8.9,10C750.3,480.3,749.1,480.4,748,480.4L748,480.4z"/>
	<path class="st1" d="M802.2,480.2c-22.2,0-36.7-13.8-36.7-35.7c0-21.4,14.8-35.6,36.2-35.6c20.3,0,33.2,11.2,34.9,30.3
		c0.6,6.8-2.9,10.2-10.2,10.2h-37.2c0.2,9.2,5.6,14.6,14.6,14.6c5,0,8.5-1.4,11.9-4.1c3.5-2.7,5.4-4,10.5-2.8l1.9,0.4
		c6.9,1.6,7.9,5.5,3.2,11.1C825.4,475.7,815.4,480.2,802.2,480.2L802.2,480.2z M802.3,423.8c-7.1,0-12.3,4.4-13,12.1h25.7
		C814.6,428.5,809.6,423.8,802.3,423.8z"/>
	<path class="st1" d="M894.3,419.5l-0.2,1.7c-0.7,6.2-4.3,8-10.4,9.4c-6.9,1.6-10.8,6.8-10.8,17.6V469c0,6.6-3.6,10.2-10.2,10.2
		h-3.1c-6.6,0-10.2-3.6-10.2-10.2v-49c0-6.6,3.6-10.2,10.2-10.2h3.1c6.6,0,10.2,2.9,10.2,9.2c1.9-4.7,6.3-9.7,14-9.7
		C892.7,409.2,895,412.3,894.3,419.5z"/>
</g>
</svg>
