<svg id="Layer_1" data-name="Layer 1" xmlns="http://www.w3.org/2000/svg" viewBox="0 0 280.76 450.29"><defs><style>.cls-1{fill:#74e6b1;}</style></defs><path class="cls-1" d="M704,490.1c-10.41-24.7-37.37-47-64.53-52.1A94.25,94.25,0,0,0,655,381.85a105.85,105.85,0,0,0-99.87-105.43,101.39,101.39,0,0,0,7.14-23,94,94,0,0,0,56.15,15.46l-.21,0A105.88,105.88,0,0,0,724,163.08h0a105.86,105.86,0,1,0-211.71,0,124.61,124.61,0,0,0,15.79,56.8l-.29-.62a39.29,39.29,0,0,1,8.06,23.84c0,9-3.88,21.31-10.26,31.31a57.59,57.59,0,0,1-3.88,5.38,105.86,105.86,0,0,0,27.4,208.12,124.81,124.81,0,0,0,56.8-15.79l-.65.29a39.31,39.31,0,0,1,23.87-8.06c9,0,22.43,6.64,33.57,15.79,9.82,8.08,17.9,18.08,19.64,27.19C681.85,509.53,704.71,490.07,704,490.1ZM492.33,405.31a23.24,23.24,0,0,1-23.25-23.23V382a23.24,23.24,0,1,1,23.25,23.29ZM641.41,219.89a23.23,23.23,0,1,1-23.24-23.22,23.24,23.24,0,0,1,23.24,23.22v0Zm-36.16-56.83a12.9,12.9,0,0,1,12.91-12.88h0a12.91,12.91,0,1,1-12.94,12.88ZM675,139.87a23.23,23.23,0,0,1,23.2,23.2v0A23.22,23.22,0,1,1,675,139.87Zm-56.86-56.8h.06a23.25,23.25,0,1,1-.06,0Zm-56.74,56.8a23.23,23.23,0,0,1,23.2,23.2v0a23.22,23.22,0,1,1-23.2-23.23ZM549.07,462.05a23.22,23.22,0,0,1,0-46.43h.06a23.22,23.22,0,0,1-.06,46.43Zm-12.88-80v0a12.92,12.92,0,0,1,12.91-12.88h0a12.91,12.91,0,1,1-12.94,12.91Zm12.88-33.64a23.22,23.22,0,0,1,0-46.43h.06a23.22,23.22,0,0,1-.06,46.43Zm56.83,56.8a23.21,23.21,0,1,1,0-46.42h0a23.21,23.21,0,1,1,0,46.42Z" transform="translate(-443.25 -57.21)"/></svg>