<?xml version="1.0" encoding="utf-8"?>
<!-- Generator: Adobe Illustrator 26.0.1, SVG Export Plug-In . SVG Version: 6.00 Build 0)  -->
<svg version="1.1" id="Layer_1" xmlns="http://www.w3.org/2000/svg" xmlns:xlink="http://www.w3.org/1999/xlink" x="0px" y="0px"
	 viewBox="0 0 1366 768" style="enable-background:new 0 0 1366 768;" xml:space="preserve">
<style type="text/css">
	.st0{fill:#74E6B1;}
</style>
<g>
	<path class="st0" d="M308.5,246.99V85.34c0-15.9,8.63-24.54,24.54-24.54h10.05c15.9,0,24.54,8.63,24.54,24.54v54.43h59.79V85.34
		c0-15.9,8.63-24.54,24.54-24.54h10.05c15.9,0,24.54,8.63,24.54,24.54v161.65c0,15.9-8.63,24.54-24.54,24.54h-10.05
		c-15.9,0-24.54-8.63-24.54-24.54v-55.55h-59.79v55.55c0,15.9-8.63,24.54-24.54,24.54h-10.05
		C317.13,271.53,308.5,262.89,308.5,246.99z"/>
	<path class="st0" d="M832.79,271.53c-14.23,0-23.49-6.69-27.82-20.23L753.03,88.61c-5.36-16.81,2.82-27.71,20.48-27.71h12.59
		c14.63,0,23.48,7.03,27.26,21.07l28.77,107.09l27.6-106.99c3.65-14.15,12.62-21.17,27.24-21.17h3.11
		c14.63,0,23.61,7.31,27.23,21.37l27.5,106.79l29.13-107.07c3.83-14.08,12.56-21.09,27.19-21.09h12.79
		c17.67,0,26.01,10.69,20.52,27.77l-52.23,162.57c-4.4,13.68-13.63,20.29-27.86,20.29h-11.48c-14.63,0-23.58-7.11-27.25-21.36
		l-27.19-105.41l-27.09,105.41c-3.68,14.34-12.63,21.36-27.26,21.36L832.79,271.53L832.79,271.53z"/>
	<path class="st0" d="M308.5,461.6V299.96c0-15.9,8.63-24.54,24.54-24.54h10.05c15.9,0,24.54,8.63,24.54,24.54v134.26h41.77
		c15.9,0,24.54,8.63,24.54,24.54v2.85c0,15.9-8.63,24.54-24.54,24.54h-76.35C317.13,486.14,308.5,477.51,308.5,461.6z"/>
	<path class="st0" d="M699.66,461.6V299.96c0-15.9,8.63-24.54,24.54-24.54h12.74c13.45,0,22.38,5.13,29.52,16.79l61.24,100v-92.25
		c0-15.9,8.64-24.54,24.54-24.54h9.85c15.9,0,24.54,8.63,24.54,24.54V461.6c0,15.9-8.63,24.54-24.54,24.54h-12.56
		c-13.45,0-22.39-5.13-29.52-16.79l-61.23-100.07v92.32c0,15.9-8.63,24.54-24.54,24.54H724.2
		C708.3,486.14,699.66,477.51,699.66,461.6z"/>
	<path class="st0" d="M920.34,380.2c0-64.32,40.96-106.68,101.04-106.68c37.24,0,64.62,9.62,80.63,33.2
		c9.95,14.65,4.44,24.39-13.04,28.83l-8.98,2.29c-13.29,3.36-21.44-0.42-29.4-6.97c-6.59-5.39-15.1-9.29-27.03-9.29
		c-26.61,0-43.71,23.36-43.71,59.31c0,36.23,16.63,58.51,43.31,58.51c20.39,0,34.27-12.08,36.42-34.26h-21.27
		c-14.3,0-22.34-7.63-22.34-21.34v-0.29c0-13.41,8.73-20.96,24.54-20.96h55.62c15.5,0,24.93,3.69,24.93,16.34v4.48
		c0,65.72-37.93,104.68-100.55,104.68C959.56,488.05,920.34,445.98,920.34,380.2z"/>
	<path class="st0" d="M308.5,676.22V514.57c0-15.9,8.63-24.54,24.54-24.54h10.05c15.9,0,24.54,8.63,24.54,24.54v161.65
		c0,15.9-8.63,24.54-24.54,24.54h-10.05C317.13,700.75,308.5,692.12,308.5,676.22z"/>
	<path class="st0" d="M486.13,702.85c-34.62,0-67.17-13.38-81.16-35.79c-9.13-14.62-3.87-26.59,11.86-30.88l4.69-1.27
		c13.13-3.57,21.2,0.74,29.26,9.04c9.58,9.86,21.2,15.15,34.87,15.15c16.01,0,25.94-6.87,25.94-17.95
		c0-31.91-108.2-13.14-108.2-89.95c0-38.22,32.55-63.07,79.8-63.07c35.2,0,64.21,11.02,77.56,31.81
		c10.73,16.7,6.1,28.84-11.56,32.42l-4.74,0.96c-18.27,3.7-24.31-4.37-33.42-11.89c-7.54-6.22-15.55-9.51-25.53-9.51
		c-14.63,0-23.97,6.64-23.97,17.02c0,36.72,109.78,13.13,109.78,89.41C571.33,677.57,535.62,702.85,486.13,702.85L486.13,702.85z"/>
	<path class="st0" d="M716.2,490.04h-10.05c-0.73,0-1.44,0.03-2.15,0.06c-10.41-24.7-37.37-47.04-64.53-52.1
		c10.97-16.61,16.38-36.28,15.49-56.15c-0.15-56.36-44.28-102.34-99.87-105.43c3.23-7.17,5.64-14.93,7.14-22.96
		c16.61,10.97,36.25,16.38,56.15,15.46l-0.21,0.03c58.45-0.06,105.81-47.42,105.81-105.87h0.03c0-58.47-47.39-105.87-105.87-105.87
		c-58.45,0-105.84,47.39-105.84,105.87c0.65,19.93,6.06,39.42,15.79,56.8l-0.29-0.62c5.23,6.85,8.06,15.23,8.06,23.84
		c0,9.03-3.88,21.31-10.26,31.31c-1.21,1.88-2.5,3.7-3.88,5.38c-45.19,12.05-78.47,53.27-78.47,102.28
		c0,58.45,47.39,105.84,105.87,105.84c19.9-0.65,39.39-6.06,56.8-15.79l-0.65,0.29c6.85-5.23,15.23-8.06,23.87-8.06
		c9.03,0,22.43,6.64,33.57,15.79c9.82,8.08,17.9,18.08,19.64,27.19c-0.5,2.2-0.73,4.62-0.73,7.2v161.67
		c0,15.9,8.61,24.52,24.52,24.52h10.05c15.9,0,24.52-8.61,24.52-24.52V514.56C740.72,498.68,732.11,490.04,716.2,490.04z
		 M492.33,405.31c-12.85,0-23.25-10.41-23.25-23.23v-0.06c0.03-12.82,10.44-23.2,23.25-23.2c12.82,0,23.23,10.41,23.23,23.25
		C515.55,394.9,505.14,405.31,492.33,405.31z M641.41,219.89c-0.03,12.82-10.41,23.2-23.23,23.2c-12.82,0-23.2-10.41-23.2-23.23
		c0-6.41,2.59-12.2,6.79-16.4c4.2-4.2,10-6.79,16.4-6.79c12.82,0,23.23,10.38,23.23,23.2V219.89z M605.25,163.06
		c0-7.11,5.79-12.88,12.91-12.88h0.03c7.11,0,12.88,5.79,12.88,12.91c0,7.11-5.79,12.91-12.91,12.91
		C611.01,176,605.25,170.21,605.25,163.06z M675.01,139.87c12.79,0,23.17,10.38,23.2,23.2v0.03c-0.03,12.82-10.41,23.2-23.23,23.2
		c-12.82-0.03-23.2-10.41-23.2-23.23C651.79,150.24,662.19,139.87,675.01,139.87z M618.15,83.07h0.06c12.82,0,23.2,10.41,23.2,23.23
		c0,12.82-10.41,23.23-23.25,23.23c-12.82,0-23.23-10.41-23.23-23.23C594.93,93.45,605.34,83.07,618.15,83.07z M561.41,139.87
		c12.79,0,23.17,10.38,23.2,23.2v0.03c-0.03,12.82-10.41,23.2-23.23,23.2c-12.82-0.03-23.2-10.41-23.2-23.23
		C538.19,150.24,548.6,139.87,561.41,139.87z M549.07,462.05c-12.79,0-23.2-10.41-23.17-23.23c0-12.79,10.38-23.17,23.17-23.2h0.06
		c12.79,0.03,23.2,10.41,23.17,23.23C572.29,451.67,561.88,462.05,549.07,462.05z M536.19,382.09v-0.03
		c0.03-7.11,5.79-12.88,12.91-12.88h0.03c7.11,0,12.88,5.79,12.88,12.91c0,7.14-5.79,12.91-12.91,12.91
		C541.95,394.99,536.19,389.2,536.19,382.09z M549.07,348.45c-12.79,0-23.2-10.41-23.17-23.23c0-12.79,10.38-23.17,23.17-23.2h0.06
		c12.79,0.03,23.2,10.41,23.17,23.23C572.29,338.08,561.88,348.45,549.07,348.45z M605.9,405.25c-6.41,0-12.23-2.59-16.4-6.79
		c-4.23-4.2-6.82-10-6.82-16.4c0-12.82,10.41-23.23,23.23-23.23h0.03c12.79,0.03,23.2,10.41,23.2,23.23
		C629.09,394.87,618.71,405.25,605.9,405.25z"/>
	<path class="st0" d="M813.88,676.22V542.16h-20.93c-15.9,0-24.53-8.63-24.53-24.54v-3.05c0-15.9,8.63-24.54,24.53-24.54h100.49
		c15.9,0,24.54,8.63,24.54,24.54v3.05c0,15.9-8.63,24.54-24.54,24.54H872.8v134.06c0,15.9-8.64,24.54-24.54,24.54h-9.85
		C822.52,700.75,813.88,692.12,813.88,676.22z"/>
	<path class="st0" d="M1102.82,552.15c0,33.25-22.06,60.21-69.19,59.78c-2.56,12.13-7.62,18.92-21.68,18.92
		c-12.62,0-20.63-6.35-21.3-19.56l-0.37-6.52c-0.71-13.44,7.25-19.25,23.74-20.66c20.29-1.74,32.23-8.96,32.23-24.02
		c0-14.92-12.19-23.59-32.74-23.59c-10.96,0-18.71,4.19-26.2,10.69c-9.68,8.63-15.68,11.49-29.34,10.35l-5.67-0.47
		c-16.78-1.4-23.21-11.87-15.93-27.29c12.7-26.88,40.78-42.84,79.35-42.84C1070.45,486.93,1102.82,512.83,1102.82,552.15z
		 M1043.45,675.22c0,18.25-14.81,27.45-31.68,27.45c-18.45,0-31.59-9.2-31.59-27.45c0-18.05,13.14-27.44,31.59-27.44
		C1028.64,647.77,1043.45,657.17,1043.45,675.22z"/>
</g>
</svg>
